<?xml version="1.0" encoding="utf-8"?>
<!-- Generator: Adobe Illustrator 26.0.1, SVG Export Plug-In . SVG Version: 6.00 Build 0)  -->
<svg version="1.1" id="Camada_1" xmlns="http://www.w3.org/2000/svg" xmlns:xlink="http://www.w3.org/1999/xlink" x="0px" y="0px"
	 viewBox="0 0 399.1 166.9" style="enable-background:new 0 0 399.1 166.9;" xml:space="preserve">
<style type="text/css">
	.st0{fill:#EAE2D1;}
</style>
<g>
	<g>
		<g>
			<path class="st0" d="M169,48.5l-0.2,0.1c-1.2-1.1-2.6-2-4.2-2.6c-1.7-0.6-3.5-1-5.4-1c-1.9,0-3.6,0.3-5.2,0.9
				c-1.6,0.6-2.9,1.5-4.1,2.6c-1.1,1.1-2,2.5-2.7,4.2c-0.6,1.6-1,3.5-1,5.6c0,2.3,0.3,4.5,0.9,6.5c0.6,2,1.5,3.7,2.7,5.2
				c1.2,1.5,2.7,2.6,4.5,3.5c1.8,0.8,3.9,1.3,6.3,1.3c0.9,0,1.7-0.1,2.6-0.3c0.9-0.2,1.7-0.4,2.5-0.8c0.8-0.4,1.5-0.8,2.2-1.3
				c0.7-0.5,1.3-1.1,1.9-1.7l0.2,0.2l-1.8,4.6c-1.1,0.4-2.4,0.8-3.7,1c-1.4,0.2-2.7,0.4-4.1,0.4c-2.8,0-5.3-0.4-7.7-1.2
				c-2.3-0.8-4.3-1.9-6-3.4c-1.7-1.5-3-3.3-3.9-5.3c-0.9-2.1-1.4-4.4-1.4-6.9c0-1.4,0.2-2.8,0.6-4.2c0.4-1.4,0.9-2.7,1.6-4
				c0.7-1.3,1.6-2.4,2.6-3.5c1-1,2.2-2,3.6-2.7c1.3-0.8,2.8-1.4,4.4-1.8c1.6-0.4,3.3-0.6,5.2-0.6c2.9,0,5.6,0.4,8.1,1.3L169,48.5z"
				/>
			<path class="st0" d="M178.9,74c1.8,0,3.4-0.1,4.9-0.2c1.5-0.2,2.8-0.3,3.9-0.5c1.3-0.2,2.5-0.5,3.6-0.7l-0.7,3.7
				c-0.2,0-0.5,0-0.8,0c-0.4,0-0.8,0-1.2,0c-0.4,0-0.9,0-1.4,0c-0.5,0-1,0-1.4,0c-0.4,0-0.8,0-1.2,0c-0.3,0-0.6,0-0.7,0h-9.8v-0.1
				c0.1-0.3,0.2-0.7,0.3-1.2c0.1-0.5,0.2-1,0.2-1.7c0.1-0.7,0.1-1.5,0.1-2.5c0-1,0-2.1,0-3.4V52.4c0-1.3,0-2.4,0-3.4
				c0-1-0.1-1.8-0.1-2.5c-0.1-0.7-0.1-1.3-0.2-1.8c-0.1-0.5-0.2-0.9-0.3-1.2v-0.1h5.4v0.1c-0.1,0.3-0.2,0.7-0.3,1.2
				c-0.1,0.5-0.2,1.1-0.2,1.8c-0.1,0.7-0.1,1.5-0.1,2.5c0,1-0.1,2.1-0.1,3.4V74z"/>
			<path class="st0" d="M204.5,36.8c-1.1,0.4-2.2,0.8-3.4,1.2c-0.5,0.2-1,0.4-1.6,0.6c-0.5,0.2-1.1,0.4-1.7,0.7
				c-0.6,0.2-1.1,0.5-1.7,0.7c-0.6,0.3-1.1,0.5-1.6,0.8l-0.5-0.8c1-0.6,2-1.4,2.9-2.1c1-0.8,1.9-1.5,2.7-2.2
				c0.9-0.8,1.8-1.6,2.7-2.4L204.5,36.8z M195.7,75.9c0.1-0.3,0.2-0.7,0.2-1.2c0.1-0.5,0.1-1,0.2-1.7c0.1-0.7,0.1-1.5,0.1-2.5
				c0-1,0-2.1,0-3.4V52.4c0-1.3,0-2.4,0-3.4c0-1-0.1-1.8-0.1-2.5c-0.1-0.7-0.1-1.3-0.2-1.8c-0.1-0.5-0.2-0.9-0.2-1.2v-0.1h5.4v0.1
				c-0.1,0.3-0.2,0.7-0.3,1.2c-0.1,0.5-0.2,1.1-0.2,1.8c-0.1,0.7-0.1,1.5-0.1,2.5c0,1-0.1,2.1-0.1,3.4v14.7c0,1.3,0,2.4,0.1,3.4
				c0,1,0.1,1.8,0.1,2.5c0.1,0.7,0.1,1.3,0.2,1.7c0.1,0.5,0.2,0.9,0.3,1.2V76L195.7,75.9L195.7,75.9z"/>
			<path class="st0" d="M209,43.5l23.3,24.8V52.4c0-1.3,0-2.4,0-3.4c0-1-0.1-1.8-0.1-2.5c-0.1-0.7-0.1-1.3-0.2-1.8
				c-0.1-0.5-0.2-0.9-0.3-1.2v-0.1h4v0.1c-0.1,0.3-0.2,0.7-0.2,1.2c-0.1,0.5-0.1,1.1-0.2,1.8c-0.1,0.7-0.1,1.5-0.1,2.5
				c0,1,0,2.1,0,3.4v24h-0.8L211,51.7v15.5c0,1.3,0,2.4,0,3.4c0,1,0.1,1.8,0.1,2.5c0.1,0.7,0.1,1.3,0.2,1.7c0.1,0.5,0.2,0.9,0.2,1.2
				V76h-4v-0.1c0.1-0.3,0.2-0.7,0.3-1.2c0.1-0.5,0.2-1,0.2-1.7c0.1-0.7,0.1-1.5,0.1-2.5c0-1,0-2.1,0-3.4V52.4c0-1.3,0-2.4,0-3.4
				c0-1-0.1-1.8-0.1-2.5c-0.1-0.7-0.1-1.3-0.2-1.8c-0.1-0.5-0.2-0.9-0.3-1.2v-0.1H209z"/>
			<path class="st0" d="M242.2,75.9c0.1-0.3,0.2-0.7,0.2-1.2c0.1-0.5,0.1-1,0.2-1.7c0.1-0.7,0.1-1.5,0.1-2.5s0-2.1,0-3.4V52.4
				c0-1.3,0-2.4,0-3.4c0-1-0.1-1.8-0.1-2.5c-0.1-0.7-0.1-1.3-0.2-1.8c-0.1-0.5-0.2-0.9-0.2-1.2v-0.1h5.4v0.1
				c-0.1,0.3-0.2,0.7-0.3,1.2c-0.1,0.5-0.2,1.1-0.2,1.8c-0.1,0.7-0.1,1.5-0.1,2.5c0,1-0.1,2.1-0.1,3.4v14.7c0,1.3,0,2.4,0.1,3.4
				c0,1,0.1,1.8,0.1,2.5c0.1,0.7,0.1,1.3,0.2,1.7c0.1,0.5,0.2,0.9,0.3,1.2V76L242.2,75.9L242.2,75.9z"/>
			<path class="st0" d="M280.5,48.5l-0.2,0.1c-1.2-1.1-2.6-2-4.2-2.6c-1.7-0.6-3.5-1-5.4-1c-1.9,0-3.6,0.3-5.2,0.9s-2.9,1.5-4.1,2.6
				c-1.1,1.1-2,2.5-2.7,4.2c-0.6,1.6-0.9,3.5-0.9,5.6c0,2.3,0.3,4.5,0.9,6.5c0.6,2,1.5,3.7,2.7,5.2c1.2,1.5,2.7,2.6,4.5,3.5
				c1.8,0.8,3.9,1.3,6.3,1.3c0.9,0,1.7-0.1,2.6-0.3s1.7-0.4,2.5-0.8c0.8-0.4,1.5-0.8,2.2-1.3c0.7-0.5,1.3-1.1,1.9-1.7l0.2,0.2
				l-1.8,4.6c-1.1,0.4-2.4,0.8-3.7,1c-1.4,0.2-2.7,0.4-4.1,0.4c-2.8,0-5.3-0.4-7.7-1.2c-2.3-0.8-4.3-1.9-6-3.4
				c-1.7-1.5-3-3.3-3.9-5.3c-0.9-2.1-1.4-4.4-1.4-6.9c0-1.4,0.2-2.8,0.6-4.2c0.4-1.4,0.9-2.7,1.6-4c0.7-1.3,1.6-2.4,2.6-3.5
				c1-1,2.2-2,3.6-2.7c1.3-0.8,2.8-1.4,4.4-1.8c1.6-0.4,3.3-0.6,5.2-0.6c2.9,0,5.6,0.4,8.1,1.3L280.5,48.5z"/>
			<path class="st0" d="M308.6,76L308.6,76c0-0.2,0.1-0.3,0.1-0.4c0-0.2,0-0.3,0-0.4c0-0.5-0.1-1-0.2-1.6c-0.1-0.6-0.4-1.3-0.7-2.1
				l-2.7-6.2c-0.8,0-2,0-3.4,0c-1.4,0-2.9,0-4.5,0c-1.2,0-2.3,0-3.5,0s-2.1,0-3,0l-2.6,6c-0.2,0.6-0.5,1.2-0.7,1.8
				c-0.3,0.7-0.4,1.3-0.4,2c0,0.2,0,0.4,0,0.5c0,0.1,0.1,0.2,0.1,0.3V76h-4.6v-0.1c0.3-0.3,0.6-0.8,1-1.5c0.4-0.7,0.9-1.6,1.3-2.8
				l13-28.8h1.8l12.3,27.7c0.3,0.6,0.6,1.3,0.9,1.9c0.3,0.6,0.6,1.2,0.9,1.6c0.3,0.5,0.5,0.9,0.7,1.2c0.2,0.3,0.4,0.5,0.4,0.6V76
				H308.6z M293.9,63.3c0.9,0,1.8,0,2.7,0c0.9,0,1.8,0,2.7,0c0.9,0,1.7,0,2.5,0c0.8,0,1.6,0,2.2,0l-6.4-14.4l-6.2,14.5H293.9z"/>
		</g>
		<g>
			<path class="st0" d="M147.2,120.8c0,1.6,0,3,0.1,4.2c0,1.2,0.1,2.2,0.2,3.1c0.1,0.9,0.2,1.6,0.3,2.2c0.1,0.6,0.2,1.1,0.3,1.5v0.1
				h-6.8v-0.1c0.1-0.4,0.2-0.9,0.3-1.5c0.1-0.6,0.2-1.3,0.3-2.2c0.1-0.9,0.1-1.9,0.2-3.1c0-1.2,0.1-2.6,0.1-4.2v-18.4
				c0-1.6,0-3-0.1-4.2c0-1.2-0.1-2.2-0.2-3.1c-0.1-0.9-0.2-1.6-0.3-2.2c-0.1-0.6-0.2-1.1-0.3-1.5v-0.1c1.6,0,3.1,0,4.7,0
				c1.6,0,3.2,0,4.7,0c1.5,0,2.9,0,4.3-0.1c1.4,0,2.6-0.1,3.7-0.1c1.1,0,2-0.1,2.8-0.1c0.8,0,1.3-0.1,1.6-0.2l-1.4,3.8
				c-0.6-0.2-1.3-0.3-2.2-0.5c-0.7-0.1-1.6-0.2-2.6-0.3c-1-0.1-2.2-0.2-3.5-0.2c-0.5,0-1,0-1.7,0c-0.7,0-1.3,0.1-2,0.1
				c-0.8,0-1.5,0.1-2.4,0.1v14.3c1.9,0,3.7-0.1,5.3-0.2c1.6-0.1,3-0.2,4.2-0.3c1.4-0.1,2.6-0.2,3.7-0.4l-0.8,4.1
				c-1.4-0.2-2.8-0.3-4.3-0.5c-1.2-0.1-2.6-0.2-4-0.4s-2.8-0.2-4-0.2V120.8z"/>
			<path class="st0" d="M192.2,131.8v-0.1c0-0.1,0.1-0.2,0.1-0.4c0-0.2,0-0.4,0-0.5c0-0.6-0.1-1.2-0.2-1.9c-0.2-0.7-0.5-1.6-0.9-2.6
				l-3.4-7.7c-1.1,0-2.5-0.1-4.2-0.1s-3.6,0-5.7,0c-1.5,0-2.9,0-4.3,0s-2.6,0-3.7,0.1l-3.2,7.5c-0.3,0.7-0.6,1.5-0.9,2.3
				c-0.3,0.8-0.5,1.7-0.5,2.5c0,0.2,0,0.4,0.1,0.6c0,0.2,0.1,0.3,0.1,0.3v0.1h-5.8v-0.1c0.3-0.4,0.8-1,1.3-1.9
				c0.5-0.9,1.1-2.1,1.7-3.4l16.2-35.9h2.3l15.3,34.5c0.4,0.8,0.7,1.6,1.1,2.4c0.4,0.8,0.7,1.4,1.1,2c0.3,0.6,0.6,1.1,0.9,1.5
				c0.3,0.4,0.4,0.7,0.5,0.8v0.1H192.2z M173.9,116.1c1.1,0,2.2,0,3.4,0c1.1,0,2.3,0,3.4,0c1.1,0,2.2,0,3.2,0c1,0,1.9,0,2.8,0
				L178.6,98l-7.8,18H173.9z"/>
			<path class="st0" d="M209.3,129.4c2.2,0,4.3-0.1,6.1-0.3c1.9-0.2,3.5-0.4,4.9-0.6c1.6-0.3,3.1-0.6,4.4-0.9l-0.8,4.6
				c-0.2,0-0.6,0-1-0.1c-0.5,0-1,0-1.5-0.1c-0.6,0-1.1,0-1.7,0c-0.6,0-1.2,0-1.7,0c-0.5,0-1,0-1.5,0c-0.4,0-0.7,0-0.9,0h-12.2v-0.1
				c0.1-0.4,0.2-0.9,0.3-1.5c0.1-0.6,0.2-1.3,0.3-2.2c0.1-0.9,0.1-1.9,0.2-3.1c0-1.2,0.1-2.6,0.1-4.2v-18.4c0-1.6,0-3-0.1-4.2
				c0-1.2-0.1-2.2-0.2-3.1c-0.1-0.9-0.2-1.6-0.3-2.2c-0.1-0.6-0.2-1.1-0.3-1.5v-0.1h6.8v0.1c-0.1,0.4-0.2,0.9-0.3,1.5
				c-0.1,0.6-0.2,1.3-0.3,2.2c-0.1,0.9-0.1,1.9-0.2,3.1c0,1.2-0.1,2.6-0.1,4.2V129.4z"/>
			<path class="st0" d="M257.9,131.8v-0.1c0-0.1,0.1-0.2,0.1-0.4c0-0.2,0-0.4,0-0.5c0-0.6-0.1-1.2-0.2-1.9c-0.2-0.7-0.5-1.6-0.9-2.6
				l-3.4-7.7c-1.1,0-2.5-0.1-4.2-0.1s-3.6,0-5.7,0c-1.5,0-2.9,0-4.3,0s-2.6,0-3.7,0.1l-3.2,7.5c-0.3,0.7-0.6,1.5-0.9,2.3
				c-0.3,0.8-0.5,1.7-0.5,2.5c0,0.2,0,0.4,0.1,0.6c0,0.2,0.1,0.3,0.1,0.3v0.1h-5.8v-0.1c0.3-0.4,0.8-1,1.3-1.9
				c0.5-0.9,1.1-2.1,1.7-3.4l16.2-35.9h2.3L262,125c0.4,0.8,0.7,1.6,1.1,2.4c0.4,0.8,0.7,1.4,1.1,2c0.3,0.6,0.6,1.1,0.9,1.5
				c0.3,0.4,0.4,0.7,0.5,0.8v0.1H257.9z M239.7,116.1c1.1,0,2.2,0,3.4,0c1.1,0,2.3,0,3.4,0c1.1,0,2.2,0,3.2,0c1,0,1.9,0,2.8,0
				L244.4,98l-7.8,18H239.7z"/>
			<g>
				<path class="st0" d="M299.9,113.1L299.9,113.1c-1.2-1.3-2.5-2.6-3.8-3.8c-1.3-1.2-2.5-2.4-3.7-3.6c-1.1-1.1-2-2.3-2.7-3.5
					c-0.7-1.1-1-2.2-1-3.4c0-0.7,0.1-1.4,0.3-2c0.2-0.6,0.5-1.1,0.9-1.5c0.4-0.4,0.9-0.7,1.5-1c0.6-0.2,1.3-0.4,2.1-0.4
					c0.9,0,1.7,0.1,2.3,0.4c0.7,0.3,1.2,0.6,1.7,1c0.5,0.4,0.8,0.9,1.1,1.3c0.3,0.5,0.5,0.9,0.6,1.3l0.2,0.6h2.2l0.3-6.8l-1.7-0.8
					c-0.5-0.2-1.1-0.4-1.7-0.7c-0.7-0.2-1.4-0.4-2.2-0.6c-2-0.4-4.6-0.3-6.8,0.5c-1.3,0.5-2.5,1.2-3.5,2.1c-1,0.9-1.9,2.1-2.5,3.4
					c-0.6,1.3-1,2.8-1,4.4c0,1.5,0.2,2.9,0.7,4.2c0.5,1.2,1.1,2.4,1.8,3.5c0.7,1.1,1.6,2.1,2.5,3c0.9,0.9,1.8,1.8,2.8,2.7
					c0.9,0.9,1.8,1.7,2.7,2.5c0.9,0.8,1.6,1.7,2.3,2.5c0.6,0.8,1.2,1.7,1.6,2.7c0.4,0.9,0.6,1.9,0.6,2.9c0,0.7-0.1,1.4-0.4,2
					c-0.2,0.6-0.6,1.1-1,1.5c-0.5,0.4-1,0.8-1.6,1c-1.4,0.5-3.3,0.5-4.8-0.1c-0.8-0.3-1.5-0.8-2.1-1.3c-0.6-0.5-1.1-1.2-1.5-1.9
					c-0.4-0.7-0.7-1.5-0.9-2.3l-0.2-0.7h-2.3l-0.8,7.7l0.5,0.3c0.4,0.3,1,0.6,1.7,1c0.7,0.4,1.5,0.7,2.3,1c0.8,0.3,1.8,0.6,2.8,0.8
					c1,0.2,2.1,0.3,3.3,0.3c2,0,3.8-0.3,5.4-1c1.5-0.7,2.8-1.5,3.7-2.6c1-1.1,1.7-2.3,2.2-3.6c0.5-1.3,0.7-2.7,0.7-4
					c0-1.8-0.4-3.5-1.3-5C302.1,115.9,301.1,114.5,299.9,113.1z"/>
				<path class="st0" d="M318.2,94.8c0.6,0,1.2-0.1,1.8-0.1c0.6,0,1.1,0,1.6,0c1.3,0,2.5,0,3.4,0.1c1,0.1,1.9,0.2,2.6,0.3
					c0.8,0.1,1.5,0.3,2.1,0.4l0.8,0.2l2.3-6.2l-1.7,0.3c-0.3,0.1-1,0.1-2.6,0.2c-1.4,0.1-3,0.1-4.9,0.1c-1.9,0-4.1,0.1-6.4,0.1
					c-2.3,0-4.7,0-7,0l-1,0.1v1l0,0.3c0.1,0.4,0.2,0.8,0.3,1.4c0.1,0.6,0.2,1.3,0.3,2.1c0.1,0.9,0.1,1.9,0.2,3.1
					c0,1.2,0.1,2.6,0.1,4.2v18.4c0,1.6,0,3-0.1,4.2c0,1.2-0.1,2.2-0.2,3c-0.1,0.8-0.2,1.5-0.3,2.1c-0.1,0.5-0.2,1-0.3,1.4l0,1.3
					h13.1c0.2,0,0.5,0,0.9,0l3.2,0.1c0.6,0,1.2,0,1.7,0l1.5,0.1c0.4,0,0.8,0,1,0.1l0.9,0.1l1.2-6.9l-1.5,0.4
					c-1.3,0.3-2.8,0.7-4.3,0.9c-1.4,0.2-3,0.5-4.8,0.6c-1.6,0.2-3.3,0.2-5.1,0.3v-15.8c0.9,0,1.9,0.1,2.9,0.1
					c1.4,0.1,2.6,0.2,3.8,0.4c1.3,0.1,2.7,0.3,4,0.5l0.9,0.1l1.3-6.3l-1.4,0.2c-0.9,0.1-2.1,0.3-3.3,0.4c-1.1,0.1-2.4,0.2-4,0.3
					c-1.3,0.1-2.7,0.1-4.2,0.2V94.9L318.2,94.8z"/>
				<path class="st0" d="M370.3,130.8c-0.3-0.1-0.6-0.3-0.9-0.4l0,0c-0.3-0.2-0.6-0.5-1-0.8c-0.4-0.3-0.7-0.8-1.1-1.2
					c-0.4-0.5-0.9-1.1-1.3-1.7l-9.3-13c0.8-0.4,1.5-0.9,2.1-1.4c1-0.8,1.8-1.7,2.5-2.7c0.7-1,1.2-2.2,1.6-3.4c0.4-1.2,0.6-2.6,0.6-4
					c0-1.9-0.3-3.6-1-5c-0.7-1.5-1.7-2.8-2.9-3.8c-1.2-1-2.7-1.8-4.3-2.3c-1.6-0.5-3.4-0.8-5.3-0.8c-2,0-3.6,0.1-4.9,0.3
					c-1.2,0.2-2.2,0.3-2.8,0.3c-0.5,0-0.9,0-1.4,0c-0.4,0-0.8,0-1.1-0.1l-1.2-0.1l-1,0v1l0,0.3c0.1,0.4,0.2,0.8,0.3,1.4
					c0.1,0.6,0.2,1.3,0.2,2.1c0.1,0.9,0.1,1.9,0.2,3.1c0,1.2,0.1,2.6,0.1,4.2v18.4c0,1.6,0,3-0.1,4.2c0,1.2-0.1,2.2-0.2,3
					c-0.1,0.8-0.1,1.5-0.2,2.1c-0.1,0.5-0.2,1-0.3,1.4l0,1.3h7.7l1-0.1v-1l0-0.3c-0.1-0.4-0.2-0.8-0.3-1.4c-0.1-0.6-0.2-1.3-0.2-2.1
					c-0.1-0.9-0.1-1.9-0.2-3.1c0-1.2-0.1-2.6-0.1-4.2v-5.3c0.2,0,0.4,0,0.6,0.1c1,0.1,2.1,0.1,3.1,0c0.3,0,0.5,0,0.8-0.1l9.7,13.6
					c0.4,0.6,0.7,1.1,1,1.7c0.3,0.7,0.4,1,0.5,1.1l0.1,0.8h9l1-0.1V131L370.3,130.8z M354.2,96.1c0.5,0.7,1,1.6,1.3,2.6
					c0.3,1.1,0.4,2.3,0.4,3.6c0,1.6-0.2,3-0.6,4.2c-0.4,1.2-1,2.1-1.7,2.9c-0.7,0.8-1.6,1.3-2.6,1.7c-1.4,0.5-3.1,0.7-5,0.5
					c-0.2,0-0.5,0-0.7-0.1V94.3c0.2-0.1,0.6-0.1,1-0.2c0.7-0.1,1.7-0.2,2.9-0.2c1.1,0,2.1,0.2,3,0.6C353,94.9,353.7,95.4,354.2,96.1
					z"/>
			</g>
			<g>
				<path class="st0" d="M268.7,110.9c0-0.5,0.1-0.9,0.3-1.3c0.2-0.4,0.4-0.8,0.7-1.1c0.3-0.3,0.7-0.5,1.1-0.7
					c0.4-0.2,0.8-0.3,1.3-0.3c0.4,0,0.9,0.1,1.3,0.3c0.4,0.2,0.8,0.4,1.1,0.7c0.3,0.3,0.5,0.6,0.7,1.1c0.2,0.4,0.3,0.8,0.3,1.3
					c0,0.4-0.1,0.9-0.3,1.3s-0.4,0.8-0.7,1.1c-0.3,0.3-0.7,0.6-1.1,0.7c-0.4,0.2-0.8,0.3-1.3,0.3c-0.5,0-0.9-0.1-1.3-0.3
					c-0.4-0.2-0.8-0.4-1.1-0.7c-0.3-0.3-0.5-0.7-0.7-1.1C268.8,111.8,268.7,111.4,268.7,110.9z"/>
			</g>
		</g>
	</g>
	<g>
		<g>
			<path class="st0" d="M74.3,112.4"/>
		</g>
		<g>
			<path class="st0" d="M74.3,92.7"/>
		</g>
		<g>
			<path class="st0" d="M84,61.9c-1.7,2.5-4.6,2.7-4.6,2.7s-0.9-2.8,0.8-5.3c1.7-2.5,4.6-2.7,4.6-2.7S85.7,59.4,84,61.9z"/>
		</g>
		<g>
			<path class="st0" d="M65.3,81.3C67,83.8,70,84,70,84s0.9-2.8-0.8-5.3c-1.7-2.5-4.6-2.7-4.6-2.7S63.6,78.7,65.3,81.3z"/>
		</g>
		<g>
			<path class="st0" d="M64.8,66.5c-2.5,1.7-2.7,4.6-2.7,4.6s2.8,0.9,5.3-0.8c2.5-1.7,2.7-4.6,2.7-4.6S67.3,64.8,64.8,66.5z"/>
		</g>
		<g>
			<path class="st0" d="M84.6,83.1c-2.7,1.4-5.4,0.2-5.4,0.2s0.5-2.9,3.2-4.3c2.7-1.4,5.4-0.2,5.4-0.2S87.2,81.6,84.6,83.1z"/>
		</g>
		<g>
			<path class="st0" d="M83.9,91.5c-0.9,2.9-3.6,4-3.6,4s-1.6-2.4-0.8-5.3c0.9-2.9,3.6-4,3.6-4S84.8,88.6,83.9,91.5z"/>
		</g>
		<g>
			<path class="st0" d="M67.6,103.1c-1.7,2.5-4.6,2.7-4.6,2.7s-0.9-2.8,0.8-5.3c1.7-2.5,4.6-2.7,4.6-2.7S69.3,100.6,67.6,103.1z"/>
		</g>
		<g>
			<path class="st0" d="M112.4,65.2c-1.6-10.6-7.3-19.9-15.6-25.8c-7.2-5-15.4-7.1-24.5-6.2c-26,2.6-32.7,24.8-32.8,25.1l-11.4,44.7
				h15v30.8l33.3-6.7v-8.6l30.9-8.1l0.2-1.1c0-0.2,3.4-17.5,5.1-30.2C113.2,74.8,113.2,70.1,112.4,65.2z M109.2,78.8
				c-1.4,10.8-4.1,24.9-4.9,28.9l-28,7.4v-7.1l13.5-12.2l-2.3-2.6l-11.2,10.1V77.7l4.2-3.8l9.9,2.3l0.8-3.4L83.7,71l6.2-5.6
				l-2.3-2.6L76.4,73V55h-3.5v38.4l-14.1-13L56.5,83l7,6.4L56,91.2l0.8,3.4l9.8-2.2l6.3,5.8v26.2l-26.4,5.3v-30h-14l10.3-40.3
				c0.2-0.8,6.2-20.2,29.8-22.6c8.2-0.8,15.7,1,22.2,5.5c7.5,5.3,12.7,13.8,14.2,23.4C109.7,70.3,109.8,74.7,109.2,78.8z"/>
		</g>
	</g>
</g>
</svg>
