<?xml version="1.0" encoding="utf-8"?>
<!-- Generator: Adobe Illustrator 26.0.1, SVG Export Plug-In . SVG Version: 6.00 Build 0)  -->
<svg version="1.1" id="Camada_1" xmlns="http://www.w3.org/2000/svg" xmlns:xlink="http://www.w3.org/1999/xlink" x="0px" y="0px"
	 viewBox="0 0 260 260" style="enable-background:new 0 0 260 260;" xml:space="preserve">
<style type="text/css">
	.st0{fill:#E9E1D0;}
	.st1{fill:#0D5550;}
</style>
<g>
	<path class="st0" d="M130,223.1L130,223.1c-51.4,0-93.1-41.7-93.1-93.1v0c0-51.4,41.7-93.1,93.1-93.1h0c51.4,0,93.1,41.7,93.1,93.1
		v0C223.1,181.4,181.4,223.1,130,223.1z"/>
	<path class="st1" d="M156,137l3.1-20.2h-19.4v-13.1c0-5.5,2.7-10.9,11.4-10.9h8.8V75.4c0,0-8-1.4-15.7-1.4
		c-16,0-26.5,9.7-26.5,27.3v15.4H100V137h17.8v49h21.9v-49H156z"/>
</g>
</svg>
