<?xml version="1.0" encoding="utf-8"?>
<!-- Generator: Adobe Illustrator 26.0.1, SVG Export Plug-In . SVG Version: 6.00 Build 0)  -->
<svg version="1.1" id="Camada_1" xmlns="http://www.w3.org/2000/svg" xmlns:xlink="http://www.w3.org/1999/xlink" x="0px" y="0px"
	 viewBox="0 0 260 260" style="enable-background:new 0 0 260 260;" xml:space="preserve">
<style type="text/css">
	.st0{opacity:0.15;fill:#D5A981;}
	.st1{fill:#D5A981;}
	.st2{fill:#EAE2D1;}
</style>
<g>
	<g>
		<circle class="st0" cx="130" cy="130" r="107.8"/>
		<circle class="st1" cx="130" cy="130" r="78.9"/>
	</g>
	<g>
		<path class="st2" d="M140.2,130c-6.7-5.8-13.2-11.6-19.7-17.3c-3.1-2.7-6.3-5.4-9.4-8.2c-2.2-1.9-2.5-4.4-0.8-6.2
			c1.6-1.8,4.1-1.8,6.3,0.1c10.7,9.4,21.4,18.7,32.1,28.1c2.6,2.3,2.6,4.8,0,7.1c-10.7,9.4-21.4,18.7-32.1,28.1
			c-2.2,1.9-4.7,1.9-6.3,0c-1.6-1.9-1.3-4.3,0.8-6.2c9.2-8.1,18.4-16.1,27.6-24.2C139.2,130.9,139.7,130.5,140.2,130z"/>
	</g>
</g>
</svg>
