<?xml version="1.0" encoding="utf-8"?>
<!-- Generator: Adobe Illustrator 26.0.1, SVG Export Plug-In . SVG Version: 6.00 Build 0)  -->
<svg version="1.1" id="Camada_1" xmlns="http://www.w3.org/2000/svg" xmlns:xlink="http://www.w3.org/1999/xlink" x="0px" y="0px"
	 viewBox="0 0 260 260" style="enable-background:new 0 0 260 260;" xml:space="preserve">
<style type="text/css">
	.st0{fill:#E9E1D0;}
	.st1{fill:#0D5550;}
</style>
<g>
	<path class="st0" d="M130,223.1L130,223.1c-51.4,0-93.1-41.7-93.1-93.1v0c0-51.4,41.7-93.1,93.1-93.1h0c51.4,0,93.1,41.7,93.1,93.1
		v0C223.1,181.4,181.4,223.1,130,223.1z"/>
	<g>
		<g>
			<path class="st1" d="M157.8,96.2c-3.4,0-6.2,2.8-6.2,6.2c0,3.4,2.8,6.2,6.2,6.2c3.4,0,6.2-2.8,6.2-6.2
				C164,99,161.3,96.2,157.8,96.2z"/>
			<path class="st1" d="M130.4,104.1c-14.3,0-25.9,11.6-25.9,25.9c0,14.3,11.6,25.9,25.9,25.9c14.3,0,25.9-11.6,25.9-25.9
				C156.3,115.7,144.7,104.1,130.4,104.1z M130.4,146.6c-9.1,0-16.6-7.4-16.6-16.6s7.4-16.6,16.6-16.6c9.1,0,16.6,7.4,16.6,16.6
				S139.6,146.6,130.4,146.6z"/>
			<path class="st1" d="M151,182.6h-42c-17.4,0-31.6-14.2-31.6-31.6v-42c0-17.4,14.2-31.6,31.6-31.6h42c17.4,0,31.6,14.2,31.6,31.6
				v42C182.6,168.4,168.4,182.6,151,182.6z M109,87.3c-12,0-21.7,9.7-21.7,21.7v42c0,12,9.7,21.7,21.7,21.7h42
				c12,0,21.7-9.7,21.7-21.7v-42c0-12-9.7-21.7-21.7-21.7H109z"/>
		</g>
	</g>
</g>
</svg>
