<?xml version="1.0" encoding="utf-8"?>
<!-- Generator: Adobe Illustrator 26.0.1, SVG Export Plug-In . SVG Version: 6.00 Build 0)  -->
<svg version="1.1" id="Camada_1" xmlns="http://www.w3.org/2000/svg" xmlns:xlink="http://www.w3.org/1999/xlink" x="0px" y="0px"
	 viewBox="0 0 399.1 166.9" style="enable-background:new 0 0 399.1 166.9;" xml:space="preserve">
<style type="text/css">
	.st0{fill:#FFFFFF;}
</style>
<g>
	<path class="st0" d="M102.6,74.3l8,17.3H94.6L102.6,74.3z M135,59.8h13.3c3.9,0.3,6.6,1.4,8,3.5c0.8,1.1,1.2,2.1,1.2,3.3
		c0,1.2-0.1,2.3-0.3,3.2c-0.2,1-0.6,1.8-1.1,2.5c-0.5,0.7-1.1,1.3-1.8,1.8c-0.8,0.5-1.7,1.1-3,1.6c-1.2,0.5-2.7,1.1-4.3,1.7
		c-1.9,0.7-3.9,1.4-5.9,2.3c-2,0.9-4.2,2-6.2,3.5V59.8z M196,74.3l8,17.3H188L196,74.3z M36,109.4c3,3.2,6.6,5.8,10.8,7.6
		c1.1,0.5,2.3,1,3.5,1.3h20.2c0.2-0.1,0.4-0.1,0.5-0.2l-0.1,0.2h11.7l7.6-16.8h24.7l7.8,16.8h1.3h10.4h0.7v-7.9c0-0.8,0-1.7,0.1-2.8
		c0-1.1,0.2-2.3,0.3-3.5c0.2-1.2,0.4-2.3,0.7-3.4c0.3-1.1,0.8-2,1.3-2.8c0.9-1.2,1.9-2.3,3-3.1c1.1-0.8,2.2-1.6,3.4-2.3l18.3,25.7
		h2.3h11.4h0.4l7.6-16.8h24.7l7.8,16.8h32.4c0.8-0.2,1.6-0.5,2.3-0.8c4-1.5,7.5-3.7,10.5-6.6c3.3-3.1,5.7-6.7,7.4-11
		c0.8-2,1.4-4,1.7-6.1v24.5h26.4H307h1.1L318.7,81l15,37.3h2.3l15-37.3l10.6,37.3h11.4l-18.6-69.5h-0.9L335,94.3l-18.7-45.6h-0.9
		l-15.9,59.4h-18V86.7h19.5V76.3h-19.5V58.8H307V48.7h-36.6v27.6h-17.2c-4.2,0-7.8,0.8-10.9,2.2c-3.1,1.4-5.5,3.7-7.4,6.9
		c-0.7,1.1-1.2,2.2-1.6,3.3c-0.4,1.1-0.6,2-0.8,3c-0.2,0.8-0.3,1.6-0.4,2.2c-0.1,0.6-0.1,1-0.1,1.1l11.1,0.3
		c0.1-0.5,0.2-0.9,0.3-1.4c0.2-0.5,0.2-0.9,0.4-1.4c0.2-0.5,0.4-1,0.7-1.6c1.5-2.7,4.4-4.1,8.6-4.1h6.8c-0.2,3.3-0.7,6.4-1.8,9
		c-1.1,2.7-2.6,5-4.5,6.9c-1.9,1.9-4.2,3.4-7,4.5c-2.7,1.1-5.7,1.6-9,1.6c-3.2,0-6.1-0.6-8.9-1.9c-2.8-1.3-5.2-3-7.3-5.2
		c-2-2.2-3.7-4.8-4.9-7.7c-1.2-3-1.8-6.1-1.8-9.5c0-3.3,0.6-6.5,1.8-9.5c1.2-3,2.8-5.5,4.9-7.7c2-2.2,4.5-3.9,7.3-5.2
		c2.8-1.3,5.8-1.9,8.9-1.9c3.3,0,6.3,0.6,9.1,1.9c2.8,1.3,5.4,3.1,7.6,5.6l8.3-7.3c-3.3-3.6-7-6.4-11.3-8.3c-4.3-2-8.8-3-13.6-3
		c-4.7,0-9.1,0.9-13.2,2.8c-4.1,1.9-7.7,4.4-10.8,7.6c-3,3.2-5.5,7-7.3,11.2c-0.1,0.2-0.1,0.2-0.2,0.4l-9.7-22.1h-1.1l-26.8,59.7
		l-14.4-20.3c0.3-0.1,0.8-0.4,1.3-0.8c2.9-1.7,9.8-6.4,11.7-11.7v-0.1c0.5-1,0.8-2,1.1-3.2c0.7-3,0.8-5.8,0.2-8.5
		c-0.5-2.7-1.6-5.1-3.2-7.3c-0.6-0.8-1.4-1.7-2.3-2.5c-0.9-0.9-2-1.7-3.4-2.5c-1.3-0.8-2.9-1.4-4.7-2c-1.8-0.5-3.8-0.9-6.1-1.1
		h-24.9v46.3l-20.7-46.3H102L89.6,76.3H75.2c-4.2,0-7.8,0.8-10.9,2.2c-3.1,1.4-5.5,3.7-7.4,6.9c-0.7,1.1-1.2,2.2-1.6,3.3
		c-0.4,1.1-0.6,2-0.8,3c-0.2,0.8-0.3,1.6-0.4,2.2c-0.1,0.6-0.1,1-0.1,1.1l11.1,0.3c0.1-0.5,0.2-0.9,0.3-1.4c0.2-0.5,0.2-0.9,0.4-1.4
		c0.2-0.5,0.4-1,0.7-1.6c1.5-2.7,4.4-4.1,8.6-4.1h6.8c-0.2,3.3-0.7,6.4-1.8,9c-1.1,2.7-2.6,5-4.5,6.9c-1.9,1.9-4.2,3.4-7,4.5
		c-2.7,1.1-5.7,1.6-9,1.6c-3.2,0-6.1-0.6-8.9-1.9c-2.8-1.3-5.2-3-7.3-5.2c-2-2.2-3.7-4.8-4.9-7.7c-1.2-3-1.8-6.1-1.8-9.5
		c0-3.3,0.6-6.5,1.8-9.5c1.2-3,2.8-5.5,4.9-7.7c2-2.2,4.5-3.9,7.3-5.2c2.8-1.3,5.8-1.9,8.9-1.9c3.3,0,6.3,0.6,9.1,1.9
		c2.8,1.3,5.4,3.1,7.6,5.6l8.3-7.3c-3.3-3.6-7-6.4-11.3-8.3c-4.1-2-8.6-3-13.3-3c-4.7,0-9.1,0.9-13.2,2.8c-4.1,1.9-7.7,4.4-10.8,7.6
		c-3,3.2-5.5,7-7.3,11.2c-1.8,4.3-2.7,8.9-2.7,13.8s0.9,9.5,2.7,13.8C30.4,102.4,32.9,106.1,36,109.4z"/>
</g>
</svg>
