<?xml version="1.0" encoding="utf-8"?>
<!-- Generator: Adobe Illustrator 26.0.1, SVG Export Plug-In . SVG Version: 6.00 Build 0)  -->
<svg version="1.1" id="Modo_de_isolamento" xmlns="http://www.w3.org/2000/svg" xmlns:xlink="http://www.w3.org/1999/xlink" x="0px"
	 y="0px" viewBox="0 0 50.9 111.2" style="enable-background:new 0 0 50.9 111.2;" xml:space="preserve">
<style type="text/css">
	.st0{clip-path:url(#SVGID_00000159467252362816056640000014213583801821503896_);}
	.st1{fill:#EAE3D2;}
	.st2{fill:#D5A982;}
</style>
<g>
	<defs>
		<rect id="SVGID_1_" x="11" y="3.1" width="35.1" height="103.8"/>
	</defs>
	<clipPath id="SVGID_00000015329848241596048140000015913157058554308766_">
		<use xlink:href="#SVGID_1_"  style="overflow:visible;"/>
	</clipPath>
	<g style="clip-path:url(#SVGID_00000015329848241596048140000015913157058554308766_);">
		<path class="st1" d="M60.1,7.8c4.8,2.3,9.7,8,14.5,14.8c4.7,6.9,9.3,14.9,10.4,23.6c1.1,8.6-2.3,16.3-9.6,21.5
			c-7.1,5.2-18.2,8-28.7,7.1c-10.6-0.9-18.2-5-20.9-11.4c-2.9-6.4-0.9-15.1,3.9-25.1s10.9-19.2,16-24.9C50.8,7.7,55.2,5.5,60.1,7.8z
			"/>
		<g>
			<path class="st2" d="M58.6,102.9c-0.2,0.2-0.5,0.3-0.7,0.4c-5.3,3.3-13.2-2.2-25.9-13.7C18.6,77,12.8,63.9,16.3,54.5
				C19.7,43.2,36,36.7,47.9,32.7c12-3.6,28.9-7,41.4-3.3c10.5,2.8,18,10.6,19.2,20l0,0c1,9.6-1.7,12.7-7.2,15.5
				c-1.3,0.7-2.8,1.4-4.4,2.1c-5.5,2.4-13,5.8-20.4,13.3c-5.4,4.7-8.7,10.1-11.4,14.4C62.7,98.4,60.9,101.4,58.6,102.9z M26.9,42.4
				C22,45.7,18,49.6,16.5,54.5c-3.5,9.3,2.3,22.3,15.6,34.8c12.6,11.4,20.4,17,25.6,13.7c2.5-1.3,4.5-4.4,7-8.4
				c2.7-4.3,6.1-9.7,11.5-14.5c7.4-7.6,15-10.9,20.4-13.4c1.6-0.7,3.1-1.4,4.4-2.1c6.3-3.1,7.9-6.7,7.1-15.2
				c-1.2-9.3-8.6-17.1-19-19.8C76.8,26,59.9,29.4,48,33C41.3,35.2,33.3,38.2,26.9,42.4z"/>
		</g>
	</g>
</g>
</svg>
