<?xml version="1.0" encoding="utf-8"?>
<!-- Generator: Adobe Illustrator 26.0.1, SVG Export Plug-In . SVG Version: 6.00 Build 0)  -->
<svg version="1.1" id="Modo_de_isolamento" xmlns="http://www.w3.org/2000/svg" xmlns:xlink="http://www.w3.org/1999/xlink" x="0px"
	 y="0px" viewBox="0 0 55.6 111.2" style="enable-background:new 0 0 55.6 111.2;" xml:space="preserve">
<style type="text/css">
	.st0{clip-path:url(#SVGID_00000050646743541954709390000018231327692118635699_);fill:#EAE3D2;}
	.st1{clip-path:url(#SVGID_00000050646743541954709390000018231327692118635699_);}
	.st2{fill:#005550;}
</style>
<g>
	<defs>
		
			<rect id="SVGID_1_" x="13.7" y="7.3" transform="matrix(-1 -1.224647e-16 1.224647e-16 -1 82.9966 114.041)" width="55.7" height="99.4"/>
	</defs>
	<clipPath id="SVGID_00000138533828721564576760000002722761904041133954_">
		<use xlink:href="#SVGID_1_"  style="overflow:visible;"/>
	</clipPath>
	<path style="clip-path:url(#SVGID_00000138533828721564576760000002722761904041133954_);fill:#EAE3D2;" d="M7.3,5
		c5,1.7,10.5,6.8,16.1,13.1c5.5,6.3,11,13.8,13,22.2c2.1,8.4-0.5,16.4-7.1,22.4c-6.5,6-17.1,10-27.8,10.3c-10.7,0.3-18.6-2.9-22.1-9
		c-3.6-6-2.6-14.9,1-25.4c3.7-10.5,8.6-20.3,13.1-26.5C-1.9,5.8,2.2,3.2,7.3,5z"/>
	<g style="clip-path:url(#SVGID_00000138533828721564576760000002722761904041133954_);">
		<path class="st2" d="M11,34.9c0.8,5,1.7,11.3,4.8,17.7c3.8,9.8,9.4,15.9,13.5,20.3c1.2,1.3,2.3,2.5,3.3,3.7
			c4,4.7,5.2,8.6,0.5,17.1l0,0c-4.8,8.2-14.8,12.4-25.5,10.8c-12.9-1.5-27.1-11.3-36.7-19.3c-9.4-8.3-21.8-20.7-20.5-32.4
			c0.4-10,11-19.8,28.3-26.1c16.2-5.6,25.7-7.6,29.2-2.4C8,24.6,8.2,24.8,8.3,25C9.8,27.3,10.3,30.7,11,34.9z M-29,85.1
			c9.6,8,23.7,17.8,36.6,19.3c10.6,1.6,20.5-2.6,25.2-10.7c4.2-7.5,4-11.4-0.5-16.8c-0.9-1.1-2.1-2.4-3.3-3.7
			c-4.1-4.4-9.7-10.5-13.5-20.4C12.5,46.3,11.5,40,10.7,35c-0.7-4.6-1.3-8.3-3.1-10.5c-3.5-5-12.8-3-28.9,2.5
			C-38.5,33.3-49,43-49.4,52.9c-0.5,5.1,1.5,10.3,4.8,15.2C-40.4,74.5-34.3,80.4-29,85.1z"/>
	</g>
</g>
</svg>
